<svg width="88" height="87" viewBox="0 0 88 87" fill="none" xmlns="http://www.w3.org/2000/svg">
<path d="M68.9548 2.32283L17.9966 9.19434L27.5477 80.0584L78.5059 73.1869L68.9548 2.32283Z" fill="white" stroke="#15357A" stroke-width="1.5" stroke-miterlimit="10" stroke-linecap="round" stroke-linejoin="round"/>
<path d="M36.6517 24.8634L29.3384 25.8506L30.3243 33.1733L37.6376 32.1861L36.6517 24.8634Z" fill="#EAF1FE" stroke="#15357A" stroke-width="1.5" stroke-miterlimit="10" stroke-linecap="round" stroke-linejoin="round"/>
<path d="M38.202 36.4249L30.8887 37.4121L31.8746 44.7349L39.1879 43.7477L38.202 36.4249Z" fill="#EAF1FE" stroke="#15357A" stroke-width="1.5" stroke-miterlimit="10" stroke-linecap="round" stroke-linejoin="round"/>
<path d="M39.7425 47.8663L32.4292 48.8535L33.4151 56.1763L40.7284 55.1891L39.7425 47.8663Z" fill="#EAF1FE" stroke="#15357A" stroke-width="1.5" stroke-miterlimit="10" stroke-linecap="round" stroke-linejoin="round"/>
<path d="M30.4075 18.7682L29.4553 18.8874L28.9792 15.3119L27.7889 15.4311L27.6699 14.5968L31.0027 14.1201L31.1217 14.9544L29.9314 15.0736L30.4075 18.7682Z" fill="#15357A"/>
<path d="M34.9301 18.1724L34.454 17.2189L32.7876 17.4573L32.6685 18.5299L31.7163 18.6491L32.6685 14.001L33.8588 13.8818L36.0013 18.0532L34.9301 18.1724ZM34.2159 16.3847C33.7398 15.4312 33.5017 14.9545 33.5017 14.8353C33.5017 14.7161 33.3827 14.5969 33.3827 14.5969C33.3827 14.8353 33.2637 15.5504 33.0256 16.623L34.2159 16.3847Z" fill="#15357A"/>
<path d="M40.1671 17.4576L39.0958 17.5768L37.9056 16.0274L37.0724 17.8151L36.1201 17.9343L37.3104 15.4315L35.644 13.5246L36.7153 13.4054L37.9056 14.8356L38.6197 13.167L39.572 13.0479L38.5007 15.4315L40.1671 17.4576Z" fill="#15357A"/>
<path d="M60.9972 15.5507L72.6619 74.6648L22.3131 84.676L8.50586 15.074L48.2612 7.20801L60.9972 15.5507Z" fill="white" stroke="#15357A" stroke-width="1.5" stroke-miterlimit="10" stroke-linecap="round" stroke-linejoin="round"/>
<path d="M60.4021 15.6699L49.8086 17.6959L47.7852 7.32715L60.4021 15.6699Z" fill="#EAF1FE" stroke="#15357A" stroke-width="1.5" stroke-miterlimit="10" stroke-linecap="round" stroke-linejoin="round"/>
<path d="M60.4021 15.6699L47.7852 7.32715" stroke="#15357A" stroke-width="1.5" stroke-miterlimit="10" stroke-linecap="round" stroke-linejoin="round"/>
<path d="M27.9551 29.5555L20.7163 30.9941L22.1531 38.2423L29.3919 36.8036L27.9551 29.5555Z" fill="#EAF1FE" stroke="#15357A" stroke-width="1.5" stroke-miterlimit="10" stroke-linecap="round" stroke-linejoin="round"/>
<path d="M30.2212 40.9969L22.9824 42.4355L24.4193 49.6837L31.658 48.245L30.2212 40.9969Z" fill="#EAF1FE" stroke="#2C71F0" stroke-width="1.5" stroke-miterlimit="10" stroke-linecap="round" stroke-linejoin="round"/>
<path d="M32.4727 52.3191L25.2339 53.7578L26.6707 61.0059L33.9095 59.5672L32.4727 52.3191Z" fill="#EAF1FE" stroke="#15357A" stroke-width="1.5" stroke-miterlimit="10" stroke-linecap="round" stroke-linejoin="round"/>
<path d="M54.5697 27.3497L32.5495 31.7594C31.9544 31.8786 31.4783 31.5211 31.3592 30.9252C31.2402 30.3292 31.5973 29.8525 32.1924 29.7333L54.2126 25.3236C54.8077 25.2044 55.2838 25.562 55.4029 26.1579C55.4029 26.6346 55.0458 27.2305 54.5697 27.3497Z" fill="#EAF1FE"/>
<path d="M56.8309 38.7911L34.8107 43.2008C34.2156 43.32 33.7395 42.9625 33.6205 42.3666C33.5014 41.7706 33.8585 41.2939 34.4537 41.1747L56.4738 36.765C57.0689 36.6458 57.5451 37.0034 57.6641 37.5993C57.6641 38.076 57.307 38.6719 56.8309 38.7911Z" fill="#EAF1FE"/>
<path d="M59.0921 50.1134L37.072 54.5231C36.4768 54.6423 36.0007 54.2847 35.8817 53.6888C35.7627 53.0929 36.1197 52.6162 36.7149 52.497L58.735 48.0873C59.3302 47.9681 59.8063 48.3256 59.9253 48.9216C59.9253 49.5175 59.5682 49.9942 59.0921 50.1134Z" fill="#EAF1FE"/>
<path d="M62.4254 61.6739L26.717 68.8248C26.1219 68.944 25.6457 68.5865 25.5267 67.9905C25.4077 67.3946 25.7648 66.9179 26.3599 66.7987L62.0683 59.6478C62.6634 59.5287 63.1395 59.8862 63.2585 60.4821C63.3776 61.078 63.0205 61.6739 62.4254 61.6739Z" fill="#EAF1FE"/>
<path d="M63.2588 65.7267L27.5505 72.8776C26.9553 72.9967 26.4792 72.6392 26.3602 72.0433C26.2412 71.4474 26.5983 70.9706 27.1934 70.8515L62.9018 63.7006C63.4969 63.5814 63.973 63.9389 64.092 64.5348C64.2111 65.1307 63.854 65.6075 63.2588 65.7267Z" fill="#EAF1FE"/>
<path d="M64.0919 69.5401L28.3835 76.691C27.7884 76.8102 27.3122 76.4527 27.1932 75.8568C27.0742 75.2608 27.4313 74.7841 28.0264 74.6649L63.7348 67.514C64.3299 67.3949 64.806 67.7524 64.9251 68.3483C64.9251 68.9442 64.568 69.421 64.0919 69.5401Z" fill="#EAF1FE"/>
<path d="M21.3609 23.774L20.4087 24.0123L19.6945 20.4369L18.5043 20.6753L18.3853 19.9602L21.718 19.3643L21.8371 20.0793L20.6468 20.3177L21.3609 23.774Z" fill="#15357A"/>
<path d="M25.8833 22.9399L25.4072 21.9865L23.8598 22.344L23.7408 23.4166L22.7886 23.655L23.5027 19.0069L24.693 18.7686L27.0736 22.8207L25.8833 22.9399ZM25.0501 21.1522C24.574 20.3179 24.3359 19.722 24.2169 19.6028C24.0979 19.4836 24.0979 19.3645 24.0979 19.3645C24.0979 19.6028 23.9788 20.3179 23.8598 21.3905L25.0501 21.1522Z" fill="#15357A"/>
<path d="M31.0022 21.8677L29.931 22.106L28.6216 20.6759L27.9075 22.5828L26.9553 22.702L27.9075 20.1991L26.1221 18.4114L27.1933 18.1731L28.5026 19.6032L29.0978 17.8155L30.05 17.5771L29.0978 19.9608L31.0022 21.8677Z" fill="#15357A"/>
</svg>
