<svg width="112" height="113" viewBox="0 0 112 113" fill="none" xmlns="http://www.w3.org/2000/svg">
<g clip-path="url(#clip0)">
<path opacity="0.5" d="M101.639 87.0929C97.1818 91.1317 93.1075 95.6342 89.4762 100.535C78.1817 115.69 59.8391 116.973 32.135 100.78C8.35143 89.5644 6.07081 68.0667 16.9309 53.5057C22.6446 46.0388 27.6778 38.0005 31.9612 29.5015C42.3543 8.14377 66.9958 6.33676 86.1639 31.5067C88.7417 34.9103 91.7416 37.9189 95.08 40.4485C120.015 59.1599 113.075 76.8104 101.639 87.0929Z" fill="#D5E3FC"/>
<path d="M101.759 45.3566C101.436 51.5856 101.687 57.8336 102.508 64.0097C105.028 83.234 93.2881 98.4362 63.3034 108.929C39.3786 119.864 23.2514 106.877 20.8187 88.3869C19.6965 78.7945 17.7218 69.3394 14.9217 60.1508C7.60203 37.4524 23.2731 16.934 53.4859 19.2656C57.5601 19.5854 61.6559 19.3069 65.66 18.4379C95.4492 11.8394 102.649 29.3616 101.759 45.3566Z" fill="#D5E3FC"/>
<path d="M3.99651 52.3049L2.28062 50.6728L0 50.2997L1.52041 48.4461L1.87879 46.0095L3.59469 47.6417L5.8753 48.0147L4.35489 49.8684L3.99651 52.3049Z" fill="#15357A"/>
<path d="M105.864 97.6434L105.006 96.0929L103.497 95.2885L104.941 94.3558L105.69 92.7354L106.559 94.2859L108.058 95.0903L106.613 96.023L105.864 97.6434Z" fill="#2C71F0"/>
<path d="M83.6769 9.62436L83.1773 6.27847L81.0814 3.73699L84.2091 3.20071L86.5657 0.950684L87.0653 4.30824L89.1613 6.83806L86.0336 7.37433L83.6769 9.62436Z" fill="#2C71F0"/>
<g clip-path="url(#clip1)">
<path d="M80.1643 65.055C80.1643 67.5129 79.7252 69.7951 79.0226 71.9896C78.4957 73.3941 77.881 74.7108 77.1785 75.9397C76.1246 77.6953 74.7195 79.3631 73.2266 80.7676C72.9632 81.0309 72.6997 81.2065 72.4362 81.4698C71.0311 82.611 69.3626 83.6643 67.6062 84.3666C66.0255 85.0688 64.2691 85.5955 62.5127 85.8588C61.3711 86.0344 60.3173 86.1222 59.0878 86.1222C49.9547 86.1222 42.1388 80.3287 39.2408 72.1652C38.9773 71.4629 38.8017 70.8485 38.6261 70.1463C38.3626 69.0051 38.187 67.7762 38.0991 66.5473C38.0113 66.0206 38.0113 65.5817 38.0113 65.055C38.0113 64.0895 38.0991 63.1239 38.187 62.1583C38.187 61.895 38.2748 61.7194 38.2748 61.4561C38.5382 60.0516 38.8895 58.6471 39.4164 57.3304C40.0312 55.6626 40.9093 54.1703 41.9632 52.7659C45.8272 47.4991 51.9745 44.0757 59.0878 44.0757C64.6204 44.0757 69.6261 46.1824 73.4023 49.6936C73.5779 49.8691 73.7535 50.0447 73.9292 50.2203C74.8952 51.0981 75.6855 52.1514 76.3881 53.2048C77.2663 54.5215 78.0566 56.0137 78.6714 57.506C79.0227 58.3838 79.2861 59.2616 79.4617 60.1394C79.9008 61.7194 80.1643 63.3872 80.1643 65.055Z" fill="#EAF1FE" stroke="#15357A" stroke-width="2" stroke-miterlimit="10" stroke-linecap="round" stroke-linejoin="round"/>
<path d="M46.0907 58.5594C45.6516 57.7694 44.8612 57.2427 43.8952 57.2427H39.5043C38.9773 58.5594 38.6261 59.9638 38.3626 61.3683H37.6601C37.5722 61.3683 37.4844 61.3683 37.3966 61.3683C37.6601 61.6317 37.9235 61.895 38.2748 62.0706C38.0992 63.0361 38.0992 64.0017 38.0992 64.9673C38.0992 65.494 38.0992 66.0206 38.187 66.4595C38.2748 67.6885 38.4504 68.9174 38.7139 70.0585H40.4703C40.7337 70.0585 40.9972 69.9707 41.1728 69.9707C41.6119 69.883 41.9632 69.6196 42.2266 69.3563C42.4901 69.0052 47.1445 59.9638 46.0907 58.5594Z" fill="white"/>
<path d="M80.0765 60.5783C79.9008 59.7882 79.7252 58.9982 79.3739 58.296C78.9348 56.9793 78.2323 55.6626 77.5297 54.5215C77.0028 53.5559 76.3003 52.6781 75.5099 51.8003H71.7337C71.3824 51.8003 71.0312 51.8881 70.7677 51.9759C70.6799 52.0636 70.5921 52.0636 70.4164 52.1514C69.8017 52.5025 68.5722 53.2925 68.0453 54.697C67.1671 56.8915 64.9717 58.2082 62.6006 58.2082H58.034C56.3654 58.2082 55.0482 59.6127 55.0482 61.4561C55.0482 61.4561 55.2238 62.5972 55.5751 64.3528C55.9263 65.9328 56.0142 67.5129 55.9263 69.0929C55.8385 71.3752 56.4533 74.0963 57.9462 76.6419C60.5807 81.2065 64.8839 83.7521 68.221 82.8743C68.4844 83.0499 68.7479 83.2254 69.0991 83.3132C69.0991 83.3132 73.1388 80.3287 74.3683 79.2753C74.5439 79.0998 74.8074 78.9242 74.983 78.6609C76.2125 77.432 77.3541 76.0275 78.2323 74.4475C78.847 73.3941 79.3739 72.1652 79.7252 71.024C80.3399 69.0929 80.6912 67.074 80.6912 64.9672C80.5156 63.3872 80.3399 61.9827 80.0765 60.5783Z" fill="white"/>
<path d="M80.1643 65.055C80.1643 67.5129 79.7252 69.7951 79.0226 71.9896C78.4957 73.3941 77.881 74.7108 77.1785 75.9397C76.1246 77.6953 74.7195 79.3631 73.2266 80.7676C72.9632 81.0309 72.6997 81.2065 72.4362 81.4698C71.0311 82.611 69.3626 83.6643 67.6062 84.3666C66.0255 85.0688 64.2691 85.5955 62.5127 85.8588C61.3711 86.0344 60.3173 86.1222 59.0878 86.1222C49.9547 86.1222 42.1388 80.3287 39.2408 72.1652C38.9773 71.4629 38.8017 70.8485 38.6261 70.1463C38.3626 69.0051 38.187 67.7762 38.0991 66.5473C38.0113 66.0206 38.0113 65.5817 38.0113 65.055C38.0113 64.0895 38.0991 63.1239 38.187 62.1583C38.187 61.895 38.2748 61.7194 38.2748 61.4561C38.5382 60.0516 38.8895 58.6471 39.4164 57.3304C40.0312 55.6626 40.9093 54.1703 41.9632 52.7659C45.8272 47.4991 51.9745 44.0757 59.0878 44.0757C64.6204 44.0757 69.6261 46.1824 73.4023 49.6936C73.5779 49.8691 73.7535 50.0447 73.9292 50.2203C74.8952 51.0981 75.6855 52.1514 76.3881 53.2048C77.2663 54.5215 78.0566 56.0137 78.6714 57.506C79.0227 58.3838 79.2861 59.2616 79.4617 60.1394C79.9008 61.7194 80.1643 63.3872 80.1643 65.055Z" stroke="#15357A" stroke-width="2" stroke-miterlimit="10" stroke-linecap="round" stroke-linejoin="round"/>
<path d="M28.1756 51.3614C27.034 57.2427 31.4249 62.4217 37.1331 62.5972H45.4759C46.0906 62.5972 46.6176 62.0706 46.6176 61.4561V53.2926C46.6176 47.4991 41.4363 43.0224 35.4646 44.1635C31.864 44.8657 28.8782 47.7625 28.1756 51.3614Z" fill="#15357A"/>
<path d="M37.3088 60.8418C41.4799 60.8418 44.8612 57.4619 44.8612 53.2927C44.8612 49.1235 41.4799 45.7437 37.3088 45.7437C33.1377 45.7437 29.7564 49.1235 29.7564 53.2927C29.7564 57.4619 33.1377 60.8418 37.3088 60.8418Z" fill="#D5E3FC"/>
<path d="M82.6232 55.4872C76.7394 54.3461 71.5581 58.735 71.3824 64.4407V72.7798C71.3824 73.3943 71.9093 73.9209 72.5241 73.9209H80.6912C86.4872 73.9209 90.966 68.7419 89.8243 62.7729C89.1218 59.0862 86.2238 56.1894 82.6232 55.4872Z" fill="#15357A"/>
<path d="M80.6912 72.0776C84.8623 72.0776 88.2436 68.6978 88.2436 64.5285C88.2436 60.3593 84.8623 56.9795 80.6912 56.9795C76.5201 56.9795 73.1388 60.3593 73.1388 64.5285C73.1388 68.6978 76.5201 72.0776 80.6912 72.0776Z" fill="#D5E3FC"/>
<path d="M50.2181 36L50.8329 37.2289L52.0623 37.9312L50.8329 38.5456L50.2181 39.7745L49.5156 38.5456L48.2861 37.9312L49.5156 37.2289L50.2181 36Z" fill="#15357A"/>
<path d="M84.3796 50.5715V51.6249L84.9943 52.4149L83.9405 52.5027L83.0623 53.1171V52.0638L82.4476 51.186H83.5014L84.3796 50.5715Z" fill="#15357A"/>
<path d="M35.6402 75.9397L35.5524 76.7297L35.9037 77.5197L35.1133 77.432L34.4108 77.7831L34.4986 76.9053L34.1473 76.203L34.9377 76.2908L35.6402 75.9397Z" fill="#15357A"/>
<path d="M77.9688 64.4407L80.6912 66.723L84.4674 62.334" stroke="#2C71F0" stroke-width="2" stroke-miterlimit="10" stroke-linecap="round" stroke-linejoin="round"/>
<path d="M33.8839 53.1171L36.6062 55.3116L40.3824 50.9226" stroke="#2C71F0" stroke-width="2" stroke-miterlimit="10" stroke-linecap="round" stroke-linejoin="round"/>
</g>
</g>
<defs>
<clipPath id="clip0">
<rect width="112" height="112" fill="white" transform="translate(0 0.950684)"/>
</clipPath>
<clipPath id="clip1">
<rect width="62" height="51" fill="white" transform="translate(28 36)"/>
</clipPath>
</defs>
</svg>
